<svg xmlns="http://www.w3.org/2000/svg" xmlns:xlink="http://www.w3.org/1999/xlink" viewBox="0 0 903.36 570.62"><defs><style>.cls-1{isolation:isolate;}.cls-2{fill:#c8dbfb;}.cls-3,.cls-4,.cls-7,.cls-8{fill:none;stroke-linecap:round;stroke-linejoin:round;}.cls-3,.cls-4,.cls-8{stroke:#c8dbfb;}.cls-4{stroke-dasharray:3.99 3.99;}.cls-5{fill:url(#Degradado_sin_nombre_45);}.cls-6{fill:url(#Degradado_sin_nombre_45-2);}.cls-7{stroke:#0b43a4;}.cls-7,.cls-8{stroke-dasharray:4;}.cls-9{fill:url(#Degradado_sin_nombre_45-3);}.cls-10{fill:#0b43a4;}.cls-11{fill:#5275a0;opacity:0.2;mix-blend-mode:multiply;}.cls-12{fill:#fff;}.cls-13{fill:url(#Degradado_sin_nombre_45-4);}.cls-14{fill:#6600ea;}.cls-15{fill:url(#Degradado_sin_nombre_45-5);}.cls-16{fill:#0c2340;}.cls-17{fill:#ef832b;}.cls-18{fill:#ffb9a3;}.cls-19{fill:url(#Degradado_sin_nombre_4);}.cls-20{fill:#047f76;}.cls-21{fill:#009790;}.cls-22{fill:url(#Degradado_sin_nombre_45-6);}.cls-23{fill:url(#Degradado_sin_nombre_45-7);}.cls-24{fill:url(#Degradado_sin_nombre_4-2);}.cls-25{fill:#d8742a;}.cls-26{fill:url(#Degradado_sin_nombre_4-3);}.cls-27{fill:url(#Degradado_sin_nombre_45-9);}.cls-28{fill:#4a49ca;}.cls-29{fill:url(#Degradado_sin_nombre_45-10);}.cls-30{fill:url(#Degradado_sin_nombre_45-11);}.cls-31{fill:url(#Degradado_sin_nombre_45-12);}.cls-32{fill:url(#Degradado_sin_nombre_4-4);}.cls-33{fill:url(#Degradado_sin_nombre_45-13);}.cls-34{fill:url(#linear-gradient);}</style><linearGradient id="Degradado_sin_nombre_45" x1="32.83" y1="357.77" x2="48.76" y2="357.77" gradientUnits="userSpaceOnUse"><stop offset="0" stop-color="#3958a6"/><stop offset="1" stop-color="#b366a8"/></linearGradient><linearGradient id="Degradado_sin_nombre_45-2" x1="721.67" y1="236.55" x2="737.61" y2="236.55" xlink:href="#Degradado_sin_nombre_45"/><linearGradient id="Degradado_sin_nombre_45-3" x1="27.21" y1="498.82" x2="43.14" y2="498.82" xlink:href="#Degradado_sin_nombre_45"/><linearGradient id="Degradado_sin_nombre_45-4" x1="116.19" y1="266.31" x2="640.91" y2="266.31" xlink:href="#Degradado_sin_nombre_45"/><linearGradient id="Degradado_sin_nombre_45-5" x1="352.56" y1="548.02" x2="387.7" y2="548.02" xlink:href="#Degradado_sin_nombre_45"/><linearGradient id="Degradado_sin_nombre_4" x1="300.63" y1="493.99" x2="330.59" y2="493.99" gradientUnits="userSpaceOnUse"><stop offset="0" stop-color="#4a5faa"/><stop offset="0.32" stop-color="#2e7da8"/><stop offset="0.76" stop-color="#0da2a5"/><stop offset="1" stop-color="#00b0a4"/></linearGradient><linearGradient id="Degradado_sin_nombre_45-6" x1="218.91" y1="403.05" x2="251.07" y2="403.05" gradientTransform="translate(0.8 -0.46) rotate(0.11)" xlink:href="#Degradado_sin_nombre_45"/><linearGradient id="Degradado_sin_nombre_45-7" x1="227.68" y1="482.3" x2="316.4" y2="482.3" xlink:href="#Degradado_sin_nombre_45"/><linearGradient id="Degradado_sin_nombre_4-2" x1="568.66" y1="439.35" x2="594.99" y2="439.35" xlink:href="#Degradado_sin_nombre_4"/><linearGradient id="Degradado_sin_nombre_4-3" x1="535.72" y1="446.4" x2="564.34" y2="446.4" xlink:href="#Degradado_sin_nombre_4"/><linearGradient id="Degradado_sin_nombre_45-9" x1="503.2" y1="476.59" x2="598.2" y2="476.59" xlink:href="#Degradado_sin_nombre_45"/><linearGradient id="Degradado_sin_nombre_45-10" x1="460.38" y1="23.3" x2="492.23" y2="23.3" xlink:href="#Degradado_sin_nombre_45"/><linearGradient id="Degradado_sin_nombre_45-11" x1="445.97" y1="19.19" x2="492.23" y2="19.19" xlink:href="#Degradado_sin_nombre_45"/><linearGradient id="Degradado_sin_nombre_45-12" x1="458.49" y1="32.93" x2="464.23" y2="32.93" xlink:href="#Degradado_sin_nombre_45"/><linearGradient id="Degradado_sin_nombre_4-4" x1="0" y1="43.59" x2="87.18" y2="43.59" xlink:href="#Degradado_sin_nombre_4"/><linearGradient id="Degradado_sin_nombre_45-13" x1="0" y1="169.76" x2="87.18" y2="169.76" xlink:href="#Degradado_sin_nombre_45"/><linearGradient id="linear-gradient" y1="306.67" x2="87.18" y2="306.67" gradientUnits="userSpaceOnUse"><stop offset="0" stop-color="#1f8ea7"/><stop offset="0.52" stop-color="#0da2a5"/><stop offset="1" stop-color="#00b0a4"/></linearGradient></defs><title>image 01</title><g class="cls-1"><g id="Layer_1" data-name="Layer 1"><ellipse class="cls-2" cx="410.38" cy="564.62" rx="64.29" ry="6.01"/><ellipse class="cls-2" cx="740.66" cy="564.62" rx="64.29" ry="6.01"/><path class="cls-3" d="M729.63,234.39c-.1-.66-.22-1.32-.34-2" transform="translate(146.86 -92.67)"/><path class="cls-4" d="M728.47,228.52c-10.15-43.15-48-39.15-82.1-39.07L60,190.66c-55.35.11-50,80-6.66,79.93,24.92,0,34.4,46.74-8.69,46.83-27.05.06-26.69,35.93-6.75,40.12" transform="translate(146.86 -92.67)"/><path class="cls-3" d="M39.85,357.84a18.73,18.73,0,0,0,2,.1" transform="translate(146.86 -92.67)"/><path class="cls-5" d="M48.65,356.43a8,8,0,1,1-9.2-6.52A8,8,0,0,1,48.65,356.43Z" transform="translate(146.86 -92.67)"/><path class="cls-6" d="M737.48,238a8,8,0,1,1-6.41-9.27A8,8,0,0,1,737.48,238Z" transform="translate(146.86 -92.67)"/><path class="cls-7" d="M592.8,327.15l134.55-.27A28.58,28.58,0,0,1,756,355.41h0a28.58,28.58,0,0,1-28.53,28.64l-92,.19" transform="translate(146.86 -92.67)"/><path class="cls-7" d="M185.68,426l-94.1.19a16.14,16.14,0,0,0-16.1,16.17h0a16.12,16.12,0,0,0,16.17,16.1l27.43-.05" transform="translate(146.86 -92.67)"/><path class="cls-8" d="M35.49,498.82C3.25,498.88,2.58,547,43.6,546.88l604.47-1.24c25.37-.06,28-39.64-3.32-39.58-62.42.13-64.49-29.64-29.83-29.71" transform="translate(146.86 -92.67)"/><path class="cls-9" d="M43,497.48A8,8,0,1,1,33.84,491,8,8,0,0,1,43,497.48Z" transform="translate(146.86 -92.67)"/><path class="cls-10" d="M630.37,476.56a8,8,0,1,1-9.19-6.51A8,8,0,0,1,630.37,476.56Z" transform="translate(146.86 -92.67)"/><path class="cls-11" d="M639.05,615.58l-500.52,1a12.09,12.09,0,0,1-12.12-12.06L125.73,273a12.09,12.09,0,0,1,12.07-12.11l500.52-1a12.09,12.09,0,0,1,12.11,12.07l.69,331.59A12.09,12.09,0,0,1,639.05,615.58Z" transform="translate(146.86 -92.67)"/><path class="cls-12" d="M629.25,609.25l-500.52,1a12.1,12.1,0,0,1-12.12-12.07l-.68-331.58A12.09,12.09,0,0,1,128,254.51l500.53-1a12.08,12.08,0,0,1,12.11,12.06l.69,331.59A12.1,12.1,0,0,1,629.25,609.25Z" transform="translate(146.86 -92.67)"/><path class="cls-13" d="M627.7,253.48l-498.38,1a13.16,13.16,0,0,0-13.13,13.19l0,11.45,524.7-1.09,0-11.44A13.17,13.17,0,0,0,627.7,253.48Z" transform="translate(146.86 -92.67)"/><path class="cls-2" d="M129.92,610.28l75.3-.16L204.54,279l-88.46.19.65,318A13.16,13.16,0,0,0,129.92,610.28Z" transform="translate(146.86 -92.67)"/><path class="cls-14" d="M628.66,255.48a10.1,10.1,0,0,1,10.09,10.07l.69,331.59a10.11,10.11,0,0,1-10.07,10.11l-500.54,1a10.1,10.1,0,0,1-10.09-10.07l-.69-331.58a10.09,10.09,0,0,1,10.07-10.12l500.52-1h0m0-2h0l-500.52,1a12.1,12.1,0,0,0-12.07,12.12l.69,331.58a12.09,12.09,0,0,0,12.09,12.07h0l500.52-1a12.1,12.1,0,0,0,12.07-12.12l-.69-331.58a12.09,12.09,0,0,0-12.09-12.07Z" transform="translate(146.86 -92.67)"/><path class="cls-12" d="M134.48,575.18h58a4.64,4.64,0,0,1,4.64,4.64v.57a4.64,4.64,0,0,1-4.64,4.64h-58a4.64,4.64,0,0,1-4.64-4.64v-.57a4.63,4.63,0,0,1,4.63-4.63Z" transform="translate(145.66 -92.33) rotate(-0.12)"/><rect class="cls-12" x="127.58" y="293.96" width="66.4" height="66.4" rx="8.49" ry="8.49" transform="translate(146.18 -92.33) rotate(-0.12)"/><path class="cls-2" d="M397.06,508.3l-172.14.36a6.05,6.05,0,0,1-6.06-6.05v-.75a6.05,6.05,0,0,1,6.05-6.06L397,495.44a6.06,6.06,0,0,1,6.07,6v.75A6.05,6.05,0,0,1,397.06,508.3Z" transform="translate(146.86 -92.67)"/><path class="cls-2" d="M387.11,312.18l-136,.28a6.05,6.05,0,0,1-6.07-6v-.75a6.05,6.05,0,0,1,6-6.07l136-.28a6.05,6.05,0,0,1,6.07,6v.75A6.05,6.05,0,0,1,387.11,312.18Z" transform="translate(146.86 -92.67)"/><path class="cls-2" d="M602.14,449.75l-181.36.37a6,6,0,0,1-6.07-6v-.75a6.06,6.06,0,0,1,6-6.07l181.37-.37a6,6,0,0,1,6.06,6v.75A6.06,6.06,0,0,1,602.14,449.75Z" transform="translate(146.86 -92.67)"/><path class="cls-2" d="M397.11,534.89,225,535.24a6,6,0,0,1-6.07-6v-.75a6.06,6.06,0,0,1,6-6.07L397.08,522a6,6,0,0,1,6.07,6v.75A6.05,6.05,0,0,1,397.11,534.89Z" transform="translate(146.86 -92.67)"/><path class="cls-2" d="M397.17,561.48,225,561.83a6,6,0,0,1-6.06-6V555a6.06,6.06,0,0,1,6-6.07l172.13-.35a6.05,6.05,0,0,1,6.07,6v.75A6.06,6.06,0,0,1,397.17,561.48Z" transform="translate(146.86 -92.67)"/><path class="cls-2" d="M598.46,578.82,425,579.17a10,10,0,0,1-10-10l-.16-74.5a10,10,0,0,1,10-10l173.48-.36a10,10,0,0,1,10,10l.15,74.5A10,10,0,0,1,598.46,578.82Z" transform="translate(146.86 -92.67)"/><path class="cls-2" d="M145,266.57a4.24,4.24,0,1,1-4.25-4.24A4.25,4.25,0,0,1,145,266.57Z" transform="translate(146.86 -92.67)"/><circle class="cls-2" cx="305.54" cy="173.87" r="4.24"/><path class="cls-2" d="M180.87,266.49a4.24,4.24,0,1,1-4.25-4.23A4.24,4.24,0,0,1,180.87,266.49Z" transform="translate(146.86 -92.67)"/><circle class="cls-2" cx="226.16" cy="306.08" r="12.26" transform="translate(45.92 407.94) rotate(-84.28)"/><path class="cls-12" d="M134.68,365.87H189a2.28,2.28,0,0,1,2.28,2.28v.28a2.29,2.29,0,0,1-2.29,2.29H134.68a2.28,2.28,0,0,1-2.28-2.28v-.28a2.28,2.28,0,0,1,2.28-2.28Z" transform="translate(146.1 -92.33) rotate(-0.12)"/><path class="cls-12" d="M134.7,376.23H189a2.29,2.29,0,0,1,2.29,2.29v.28a2.28,2.28,0,0,1-2.28,2.28H134.7a2.28,2.28,0,0,1-2.28-2.28v-.28a2.28,2.28,0,0,1,2.28-2.28Z" transform="translate(146.08 -92.33) rotate(-0.12)"/><path class="cls-2" d="M251.2,403l-15.36.15.11,64.34-13.25,0a8.47,8.47,0,0,1-8.49-8.45l-.24-119a8.54,8.54,0,0,1,8.54-8.57L251,331.4Z" transform="translate(146.86 -92.67)"/><path class="cls-2" d="M350.82,331.21v1a9,9,0,0,1,9,9l.24,116a9,9,0,0,1-9,9l-126.87.26a9,9,0,0,1-9-9l-.24-116a9,9,0,0,1,9-9l126.85-.26,0-1m0,0h0L224,331.47a10,10,0,0,0-10,10l.24,116a10,10,0,0,0,10,10h0l126.85-.26a10,10,0,0,0,10-10l-.24-116a10,10,0,0,0-10-10Z" transform="translate(146.86 -92.67)"/><rect class="cls-2" x="393.03" y="302.53" width="193.48" height="106.34" rx="10" ry="10" transform="translate(237.32 -191.88) rotate(12.74)"/><polygon class="cls-15" points="382.03 563.09 358.35 563.13 352.56 532.97 387.7 532.9 382.03 563.09"/><path class="cls-2" d="M212.25,625.62c0,2.46-.46,6.6,1.18,6.66s1-3.92,2.83-3.82c1.19.07-.56,13.11,4,13.42,3.1.22,2.53-6.39,2.85-10.53.21-2.8,3.8-2.25,3.83-.4,0,2.07-.1,3.46,0,5.82.17,3.93,6.22,2.89,6-2.37s0-8.82,0-8.82Z" transform="translate(146.86 -92.67)"/><path class="cls-16" d="M206.59,643.84a6.39,6.39,0,0,1-1.4-.14,5,5,0,0,1-3.64-2.73c-2.41-5.12,3.94-14.71,4.19-15.13l.33,1.72c-.06.1-5.58,8.35-3.41,12.94a3.72,3.72,0,0,0,2.8,2.08,5.79,5.79,0,0,0,1.19.12c8.53,0,23.11-15.91,23.27-16.09.59-.72,1.71,0,1.31.56C230.56,627.94,215.75,643.82,206.59,643.84Z" transform="translate(146.86 -92.67)"/><path class="cls-11" d="M455.39,231.34c-33.65-1.29-80,23.6-63.55,84.45-.35,5.14,2.73,8.81,6,7.81s.39-10.76.39-10.76c5.61-45.24,16.09-53.07,33.88-52.9l41.73-.09c10.32,1.52,29.07,8.73,31.88,44.95l10.39,1.92C516.92,280.56,510.59,233.45,455.39,231.34Z" transform="translate(146.86 -92.67)"/><path class="cls-17" d="M455.39,226c-33.65-1.29-80,23.6-63.55,84.45l6.39-2.95c5.61-45.24,16.09-53.07,33.88-52.9l41.73-.09c10.32,1.52,29.57,10.67,32.38,46.89l9.89,0C516.92,275.26,510.59,228.15,455.39,226Z" transform="translate(146.86 -92.67)"/><path class="cls-18" d="M448.5,227l-5,11s.59,6.19,6.66,6.06,6.89-2.93,6.89-2.93l.79-12.61Z" transform="translate(146.86 -92.67)"/><path class="cls-18" d="M474.19,217.87c-5.69,10.07-8.22,13.2-15.67,14.72-9.65,2-20.46-4.55-15.43-20.58,4.1-13.08,10.3-11.07,16.38-10.57S480.35,207,474.19,217.87Z" transform="translate(146.86 -92.67)"/><path class="cls-16" d="M451.55,209.92a4.08,4.08,0,0,0-4.64,1.12,5.09,5.09,0,0,0-1.28,4.86,4.4,4.4,0,0,0-4.15,4.64c-1.6-3.72-.74-7.58-1.05-11.39s.1-7.94,2.57-10.85a12.39,12.39,0,0,1,3.69-2.85,19.12,19.12,0,0,1,17.17-.24,10.45,10.45,0,0,0,7.72,1.35c7.35-1.77,11.65,3.2,7.23,7.85,1.42.51,3,1.15,3.62,2.51a1.14,1.14,0,0,1,0,1.1,1.24,1.24,0,0,1-.68.42,8,8,0,0,1-3.86.31c.49.42,3.22.58,4,2.17,2.19,4.22-6.49,2.09-7.81,1.67,1.51.28,5.47,3.45,4.21,5.62-.26.43-5.61,3.55-11.24-3a10.17,10.17,0,0,0-4.88-3.44,7.59,7.59,0,0,0-4.58.71c-1.08.4-3.82,2.07-4.61,1.08S453.3,210.79,451.55,209.92Z" transform="translate(146.86 -92.67)"/><path class="cls-18" d="M507.29,301.45c-1.49,5.13-3,5.64-1.19,6.46s3.27-2.06,3.27-2.06l8.34,1.66s-1.88-5.42-3.19-6.08S507.29,301.45,507.29,301.45Z" transform="translate(146.86 -92.67)"/><path class="cls-18" d="M398.23,307.54c1.09,2.71,1.39,2.73,2.91,6,2.91,6.23-3.9,16.06-8.12,5.32-1.16-2.94-1.18-8.35-1.18-8.35Z" transform="translate(146.86 -92.67)"/><path class="cls-16" d="M463.43,195.89c5.61.37,13.12-4,17.36,1.49.23.3.74-.09.52-.41-4.09-6-12.24-1.38-17.88-1.65-.36,0-.36.55,0,.57Z" transform="translate(146.86 -92.67)"/><path class="cls-16" d="M465.79,193.18c-3.84.85-7.55-1.07-11.41-.51A17.42,17.42,0,0,0,446,196.8c-.37.32.13,1,.53.69,3-2.16,6.28-4.09,10.14-4,3.23.12,6.16,1.32,9.37.36a.37.37,0,0,0-.2-.72Z" transform="translate(146.86 -92.67)"/><path class="cls-16" d="M443.61,198.39a9.13,9.13,0,0,0-4.5,7.39c-.17,2.28-.15,7.32,2,8.66a.35.35,0,0,0,.42-.55c-1.63-1.47-1.72-5.74-1.65-7.73a9,9,0,0,1,4-7.36c.24-.18,0-.57-.24-.41Z" transform="translate(146.86 -92.67)"/><path class="cls-16" d="M485.59,207.71c-1.47-2.45-4.75-4.16-7.55-3-.27.11-.14.57.15.55,2.74-.24,5.3.27,6.95,2.69a.26.26,0,0,0,.45-.27Z" transform="translate(146.86 -92.67)"/><path class="cls-19" d="M300.63,461.39c17.64,6.48,33,26.72,29.45,41.43-4,16.62-15.43,23.78-15.43,23.78L311,519.93s9.17-14.33,8.37-21.09c-1.27-10.84-15-18.08-15-18.08Z" transform="translate(146.86 -92.67)"/><path class="cls-16" d="M257.2,648.9s-10.84,4.37-13.55,6.84l21.47,0,0-6.82Z" transform="translate(146.86 -92.67)"/><path class="cls-16" d="M304.62,648.48s3.08,3.56,3.64,7.13l-14.64,0a17,17,0,0,1,2.73-7.14Z" transform="translate(146.86 -92.67)"/><path class="cls-20" d="M305.51,648.8h-10c.19-11.77-2.23-51.91-4.58-81.92-1.38-17.6-2.74-31.74-3.54-34.6l5.35-1.18L313,526.62C316.43,542.42,308.44,615,305.51,648.8Z" transform="translate(146.86 -92.67)"/><path class="cls-21" d="M268.77,531.65C261,543.94,259,632.7,255.69,649.15l9.48.54a861,861,0,0,1,34.08-118.87Z" transform="translate(146.86 -92.67)"/><path class="cls-11" d="M303.25,530.81c-4.57,12.42-8.68,24.58-12.31,36.08-1.38-17.6-2.74-31.74-3.54-34.6l5.35-1.18Z" transform="translate(146.86 -92.67)"/><path class="cls-21" d="M268.77,531.65C261,543.94,259,632.7,255.69,649.15l9.48.54a861,861,0,0,1,34.08-118.87Z" transform="translate(146.86 -92.67)"/><path class="cls-18" d="M274.73,432.56s-6.07,23.13,9.09,23.1l-.9,5.92,11.52,1.25L292,454.6s2.27-14.55,2.43-17.17C294.66,432.52,280.92,423.88,274.73,432.56Z" transform="translate(146.86 -92.67)"/><rect class="cls-16" x="232.78" y="406.64" width="4.47" height="18.88" transform="translate(146.04 -92.2) rotate(-0.11)"/><rect class="cls-22" x="218.91" y="399.47" width="32.15" height="7.17" rx="3.25" ry="3.25" transform="translate(146.06 -92.2) rotate(-0.11)"/><path class="cls-18" d="M231.56,430.45c-.12-4.29-3.66-3.17-1.71-10.15,1.2-4.32,10.12.69,9,3.69s-2.39,7.73-2.39,7.73Z" transform="translate(146.86 -92.67)"/><path class="cls-23" d="M283.93,460.21c-22.67,1.51-24.17,9.15-34.31,8-15-1.77-12.39-29.66-10.54-39.66l-9,0S213.94,492.05,265,480.3c-2,11.13,10.74,29.31-1.57,51.36,19.38,5.27,37.47,6.56,53-.1-2.71-3.65,5.56-40.57-10.64-67.14C302.6,459.23,285.59,460.1,283.93,460.21Z" transform="translate(146.86 -92.67)"/><path class="cls-23" d="M283.93,460.21c-22.67,1.51-24.17,9.15-34.31,8-15-1.77-12.39-29.66-10.54-39.66l-9,0S213.94,492.05,265,480.3c-2,11.13,10.74,29.31-1.57,51.36,19.38,5.27,37.47,6.56,53-.1-2.71-3.65,5.56-40.57-10.64-67.14C302.6,459.23,285.59,460.1,283.93,460.21Z" transform="translate(146.86 -92.67)"/><path class="cls-17" d="M280.8,437c1.48.37,3.2.66,4,1.91a4.63,4.63,0,0,1,.43,2.78,2.31,2.31,0,0,1,2.44-1.58,2.25,2.25,0,0,1,2,2.09,3.63,3.63,0,0,1-.33,1.4,17,17,0,0,1-1.68,3.22c1.85.68,3.4,6.09,4.33,7.78,3.11-.78,10-3.46,10.64-14.49.29-5.14-1.28-11.29-6.85-14.71-3.94-2.42-10.47-2.45-15-1.3-3.66.93-9.49,4.58-6.77,8.85C275.36,435.1,278.36,436.37,280.8,437Z" transform="translate(146.86 -92.67)"/><path class="cls-17" d="M300.23,430c2.11-.7,4.78-.33,6,1.44,1,1.37.9,3.18,1.22,4.82a3.78,3.78,0,0,0,1.05,2.14,4.51,4.51,0,0,0,2.8.87c2.44.13,4.91-.18,7.32.23s4.87,1.76,5.55,4c.38,1.25.17,2.61.63,3.83.68,1.84,2.63,2.88,4.33,3.94a28.2,28.2,0,0,1,8.9,8.86,16,16,0,0,1,2.66,7.36c.17,2.61,2.06,6.06,1.56,8.64-.54,2.77-3.27,6.53-8.67,8.26-9.32,3-12.27,4.3-21.2-1-1.08-.64-3.18-2.81-4.16-3.59a4.79,4.79,0,0,1-1.51-2.42c-.75-2.56.12-5.32,1.45-7.65s3.14-4.39,4.51-6.71a8.45,8.45,0,0,0,1.41-4.54,2.42,2.42,0,0,0-.62-1.65,2.65,2.65,0,0,0-1.44-.65c-2-.39-4.12,0-5.9-.86a4.18,4.18,0,0,1-2.15-4.74c.35-1.2,1.26-2.21,1.52-3.44a4.67,4.67,0,0,0-2.26-4.58A13,13,0,0,0,298,440.8a6.08,6.08,0,0,1-2.6-.83,3.46,3.46,0,0,1-1.31-2.89C294.15,433.64,297,431.06,300.23,430Z" transform="translate(146.86 -92.67)"/><path class="cls-17" d="M298.59,439.16a5.38,5.38,0,0,1,4.76,5.3c0,2.07-1.35,3.83-2.18,5.65-.94,2.07-1.63,4.71,0,6.62s4.41,1.7,6.73,1.7c1.73,0,3.72.08,4.42,2.27a5.57,5.57,0,0,1-.39,3.39c-.6,1.72-1.4,3-1.62,4.87,0,.36.59.45.65.09.51-2.93,3.75-7,1.39-9.87s-6.89-.32-9.69-2.23c-4.92-3.35,1.77-8.87,1.2-13.2a5.89,5.89,0,0,0-5.25-4.95c-.19,0-.24.32,0,.36Z" transform="translate(146.86 -92.67)"/><path class="cls-17" d="M275.39,425.46c8.39-4.66,17.72-3.82,24.77,2.86a.31.31,0,0,0,.44-.43c-6.38-7-17.67-8.43-25.35-2.67-.14.1,0,.33.14.24Z" transform="translate(146.86 -92.67)"/><polygon class="cls-18" points="712.85 360.01 709.1 367.55 718.26 371.29 719.24 362.61 712.85 360.01"/><path class="cls-18" d="M571.52,428.14c-20.78,9-12.27,31,.38,28.39,6.16-1.25,9.27-21.08,9.27-21.08Z" transform="translate(146.86 -92.67)"/><path class="cls-24" d="M578.42,425a10.73,10.73,0,0,0-2.46-3.53c-1.12-.91-2.91-1.2-4-.21-1.4,1.3-.58,3.73.83,5-1.22.15-2.66-.69-3.56.14-.68.64-.45,1.76-.06,2.61a11.64,11.64,0,0,0,4.26,4.88c-1.05.6-2.27,1.76-1.64,2.79.17.29.47.49.64.77.4.67,0,1.53-.39,2.2-.66,1.08-1.36,2.13-2.12,3.14.71-1,2.45-.57,3,.52a3.18,3.18,0,0,1-.74,3.35,3.32,3.32,0,0,1-1.68,1.07c-.57.13-3.09,7.92-1.12,9.44,2.42,1.89,10.68.25,11.88-1.88a5.24,5.24,0,0,0,4.67,1.93c1.73-.34,3-2.47,2.12-4a4.86,4.86,0,0,0,5.86-7c1-.31,1.22-1.69,1-2.72a6.26,6.26,0,0,0-4.3-4.42,2.13,2.13,0,0,0,1.94-2.09,4.4,4.4,0,0,0-1.16-2.86c-2-2.41-4.26-3.05-7.14-3.41S579.71,427.41,578.42,425Z" transform="translate(146.86 -92.67)"/><path class="cls-16" d="M559,647.45s-12.16,5.84-13.79,7.66c0,0,23.92,1.08,25.79-.05s-3.83-7.62-3.83-7.62Z" transform="translate(146.86 -92.67)"/><path class="cls-16" d="M604.18,640.85s-10.69,8.23-11.91,10.35c0,0,25.22-3.74,25.22-5.39s-5.32-6.66-5.32-6.66Z" transform="translate(146.86 -92.67)"/><path class="cls-25" d="M570.7,534.73c-.45,2.48-17.09,68.19,30.54,107.59L615,639.16S599,624.1,591.41,597c-7.16-25.62-1.47-28.14,2.82-42.25,4.75-15.63,1.21-27,1.21-27Z" transform="translate(146.86 -92.67)"/><path class="cls-17" d="M547.94,534.53c-7.55,18.05-20.51,79.54,7.74,114.17l14.11,0s-11.12-12.18-12.36-40.44,5.94-40.66,11-50,9.76-25.17,9.76-25.17Z" transform="translate(146.86 -92.67)"/><path class="cls-26" d="M538,422.66c-3.75,13.22-5,37.63,13.8,47.47l12.56-3.06s-22.65-11.88-17.8-41.9Z" transform="translate(146.86 -92.67)"/><path class="cls-27" d="M503.37,415.9l9.75-1.2s-1.17,41,46.13,44.4c36.11,2.64,39,70.4,39,70.4-11.65,7.84-31.18,10.21-56.22,8.42,0,0,1.6-48.35-2.37-61.58C539.61,476.34,500.3,464,503.37,415.9Z" transform="translate(146.86 -92.67)"/><path class="cls-18" d="M491.44,408.47c-1.65,1.91,5.24,4.34,11.93,7.43l8.56-1.06a33.07,33.07,0,0,0,0-3.49c-.11-1.78-1-2.8-2-1.27s-5.34,2.05-7.38.65S493.09,406.55,491.44,408.47Z" transform="translate(146.86 -92.67)"/><path class="cls-18" d="M538,422.66c-3.13-3.08-2.3-2.89-2.3-2.89l9.57,2.16s2.1-4.67,3.88-4.8-1.34,3.22-.63,4.46-2,3.58-2,3.58Z" transform="translate(146.86 -92.67)"/><path class="cls-28" d="M583.84,429.36c2,.36,4.07.63,5.73,2a4.42,4.42,0,0,1,1.25,5.86c-.33.51.46.94.8.47a5,5,0,0,0-.37-6.06c-1.69-2.12-4.75-2.86-7.34-2.76-.29,0-.39.47-.07.53Z" transform="translate(146.86 -92.67)"/><path class="cls-28" d="M592.55,447.1c1.39.8,2.53,2.14,2,3.84s-2.06,2.49-3.35,3.35a.34.34,0,0,0,.34.58c1.68-.95,3.54-2.19,3.84-4.27.27-1.83-1-3.21-2.48-4a.31.31,0,0,0-.31.54Z" transform="translate(146.86 -92.67)"/><path class="cls-28" d="M570.67,457.07a11.74,11.74,0,0,0,14-1.61c.34-.34-.16-.8-.51-.51a12.42,12.42,0,0,1-13.32,1.75c-.24-.12-.46.23-.21.37Z" transform="translate(146.86 -92.67)"/><path class="cls-28" d="M593.07,432.37c2.81,2.4.19,5.87-1.55,7.95-.23.27.13.65.39.39,2.11-2.09,4.91-6.3,1.3-8.52-.11-.06-.24.1-.14.18Z" transform="translate(146.86 -92.67)"/><polygon class="cls-10" points="458.49 35.87 454.59 26.34 492.23 12.04 458.49 35.87"/><polygon class="cls-29" points="460.38 29.99 492.23 12.04 470.06 34.56 460.38 29.99"/><polygon class="cls-30" points="445.97 22.46 492.23 12.04 454.59 26.34 445.97 22.46"/><polygon class="cls-31" points="460.38 29.99 458.49 35.87 464.23 31.81 460.38 29.99"/><path class="cls-8" d="M307.21,127.26c-9.83-1.66-23.17,8.27-17.43,18.63,2,3.52,12,2,11.28-1.9-.36-1.87-2.65-2.66-4.53-2.44-11,1.26-11.42,10.46-10.94,12.81,2.52,12.11,21.08,8,27.31,6.3" transform="translate(146.86 -92.67)"/><rect class="cls-32" width="87.18" height="87.18"/><rect class="cls-33" y="126.18" width="87.18" height="87.18"/><rect class="cls-34" y="263.09" width="87.18" height="87.18"/></g></g></svg>