<svg id="Layer_1" data-name="Layer 1" xmlns="http://www.w3.org/2000/svg" xmlns:xlink="http://www.w3.org/1999/xlink" viewBox="0 0 20 20"><defs><style>.cls-1{fill:url(#Degradado_sin_nombre_45);}.cls-2{fill:url(#Degradado_sin_nombre_45-2);}.cls-3{fill:url(#Degradado_sin_nombre_45-3);}.cls-4{fill:url(#Degradado_sin_nombre_45-4);}.cls-5{fill:url(#Degradado_sin_nombre_45-5);}.cls-6{fill:url(#Degradado_sin_nombre_45-6);}.cls-7{fill:url(#Degradado_sin_nombre_45-7);}.cls-8{fill:url(#Degradado_sin_nombre_45-8);}</style><linearGradient id="Degradado_sin_nombre_45" y1="4.24" x2="5.11" y2="4.24" gradientUnits="userSpaceOnUse"><stop offset="0" stop-color="#3958a6"/><stop offset="1" stop-color="#b366a8"/></linearGradient><linearGradient id="Degradado_sin_nombre_45-2" x1="6.1" y1="4.24" x2="11.21" y2="4.24" xlink:href="#Degradado_sin_nombre_45"/><linearGradient id="Degradado_sin_nombre_45-3" x1="12.77" y1="4.92" x2="13.97" y2="4.92" xlink:href="#Degradado_sin_nombre_45"/><linearGradient id="Degradado_sin_nombre_45-4" x1="4.11" y1="10.49" x2="20" y2="10.49" xlink:href="#Degradado_sin_nombre_45"/><linearGradient id="Degradado_sin_nombre_45-5" x1="4.11" y1="13.47" x2="20" y2="13.47" xlink:href="#Degradado_sin_nombre_45"/><linearGradient id="Degradado_sin_nombre_45-6" x1="4.11" y1="16.46" x2="20" y2="16.46" xlink:href="#Degradado_sin_nombre_45"/><linearGradient id="Degradado_sin_nombre_45-7" x1="10.98" y1="19.44" x2="20" y2="19.44" xlink:href="#Degradado_sin_nombre_45"/><linearGradient id="Degradado_sin_nombre_45-8" x1="7.61" y1="19.44" x2="8.81" y2="19.44" xlink:href="#Degradado_sin_nombre_45"/></defs><title>testimonial 20x20</title><path class="cls-1" d="M4.17,8.48H.94A.92.92,0,0,1,0,7.59V4.68C0,1,2.25.1,4.14,0a.64.64,0,0,1,.44.15.56.56,0,0,1,.19.41V2.23a.58.58,0,0,1-.55.56c-.3,0-1,.08-1.14,1.22H4.17a.91.91,0,0,1,.94.88v2.7A.92.92,0,0,1,4.17,8.48Zm-3-1.12H3.92V5.13H2.45a.58.58,0,0,1-.6-.56c0-1.89.92-2.57,1.72-2.8V1.19c-1.15.2-2.38.92-2.38,3.49Z" transform="translate(0 0)"/><path class="cls-2" d="M10.27,8.48H7a.92.92,0,0,1-.94-.89V4.68C6.1,1,8.35.1,10.24,0a.64.64,0,0,1,.44.15.56.56,0,0,1,.19.41V2.23a.58.58,0,0,1-.54.56c-.31,0-1,.08-1.14,1.22h1.08a.91.91,0,0,1,.94.88v2.7A.92.92,0,0,1,10.27,8.48Zm-3-1.12H10V5.13H8.55A.57.57,0,0,1,8,4.57C8,2.68,8.88,2,9.67,1.77V1.19c-1.15.2-2.37.92-2.37,3.49Z" transform="translate(0 0)"/><path class="cls-3" d="M13.37,5.47A.58.58,0,0,1,13,5.31a.52.52,0,0,1,0-.79.63.63,0,0,1,.84,0,.52.52,0,0,1,0,.79A.58.58,0,0,1,13.37,5.47Z" transform="translate(0 0)"/><path class="cls-4" d="M19.4,11.05H4.71a.56.56,0,1,1,0-1.12H19.4a.56.56,0,1,1,0,1.12Z" transform="translate(0 0)"/><path class="cls-5" d="M19.4,14H4.71a.56.56,0,1,1,0-1.12H19.4a.56.56,0,1,1,0,1.12Z" transform="translate(0 0)"/><path class="cls-6" d="M19.4,17H4.71a.56.56,0,1,1,0-1.12H19.4a.56.56,0,1,1,0,1.12Z" transform="translate(0 0)"/><path class="cls-7" d="M19.4,20H11.57a.56.56,0,1,1,0-1.12H19.4a.56.56,0,1,1,0,1.12Z" transform="translate(0 0)"/><path class="cls-8" d="M8.21,20h0a.56.56,0,1,1,0-1.12h0a.56.56,0,1,1,0,1.12Z" transform="translate(0 0)"/></svg>