<svg id="Layer_1" data-name="Layer 1" xmlns="http://www.w3.org/2000/svg" xmlns:xlink="http://www.w3.org/1999/xlink" viewBox="0 0 30 30"><defs><style>.cls-1{fill:url(#Degradado_sin_nombre_45);}.cls-2{fill:url(#Degradado_sin_nombre_45-2);}.cls-3{fill:url(#Degradado_sin_nombre_45-3);}.cls-4{fill:url(#Degradado_sin_nombre_45-4);}.cls-5{fill:url(#Degradado_sin_nombre_45-5);}.cls-6{fill:url(#Degradado_sin_nombre_45-6);}.cls-7{fill:url(#Degradado_sin_nombre_45-7);}.cls-8{fill:url(#Degradado_sin_nombre_45-8);}</style><linearGradient id="Degradado_sin_nombre_45" y1="6.36" x2="7.67" y2="6.36" gradientUnits="userSpaceOnUse"><stop offset="0" stop-color="#3958a6"/><stop offset="1" stop-color="#b366a8"/></linearGradient><linearGradient id="Degradado_sin_nombre_45-2" x1="9.15" y1="6.36" x2="16.82" y2="6.36" xlink:href="#Degradado_sin_nombre_45"/><linearGradient id="Degradado_sin_nombre_45-3" x1="19.16" y1="7.37" x2="20.95" y2="7.37" xlink:href="#Degradado_sin_nombre_45"/><linearGradient id="Degradado_sin_nombre_45-4" x1="6.17" y1="15.73" x2="30" y2="15.73" xlink:href="#Degradado_sin_nombre_45"/><linearGradient id="Degradado_sin_nombre_45-5" x1="6.17" y1="20.21" x2="30" y2="20.21" xlink:href="#Degradado_sin_nombre_45"/><linearGradient id="Degradado_sin_nombre_45-6" x1="6.17" y1="24.69" x2="30" y2="24.69" xlink:href="#Degradado_sin_nombre_45"/><linearGradient id="Degradado_sin_nombre_45-7" x1="16.46" y1="29.16" x2="30" y2="29.16" xlink:href="#Degradado_sin_nombre_45"/><linearGradient id="Degradado_sin_nombre_45-8" x1="11.41" y1="29.16" x2="13.22" y2="29.16" xlink:href="#Degradado_sin_nombre_45"/></defs><title>testimonial 30x30</title><path class="cls-1" d="M6.25,12.71H1.41A1.37,1.37,0,0,1,0,11.39V7C0,1.49,3.37.15,6.2,0a1,1,0,0,1,.67.23.81.81,0,0,1,.28.61V3.35a.87.87,0,0,1-.81.84c-.47,0-1.47.12-1.71,1.82H6.25A1.37,1.37,0,0,1,7.67,7.33v4.06A1.37,1.37,0,0,1,6.25,12.71ZM1.79,11H5.87V7.69H3.68a.87.87,0,0,1-.9-.84C2.78,4,4.16,3,5.36,2.66V1.78C3.62,2.08,1.79,3.16,1.79,7Z" transform="translate(0 0)"/><path class="cls-2" d="M15.41,12.71H10.56a1.37,1.37,0,0,1-1.41-1.32V7c0-5.53,3.38-6.87,6.21-7A.94.94,0,0,1,16,.23a.81.81,0,0,1,.28.61V3.35a.87.87,0,0,1-.81.84C15,4.23,14,4.31,13.78,6h1.63a1.37,1.37,0,0,1,1.41,1.32v4.06A1.37,1.37,0,0,1,15.41,12.71ZM10.94,11H15V7.69h-2.2a.87.87,0,0,1-.9-.84C11.93,4,13.31,3,14.51,2.66V1.78c-1.73.3-3.57,1.38-3.57,5.24Z" transform="translate(0 0)"/><path class="cls-3" d="M20.06,8.21A1,1,0,0,1,19.42,8a.87.87,0,0,1-.26-.6.84.84,0,0,1,.26-.59.93.93,0,0,1,1.27,0,.8.8,0,0,1,.26.59.83.83,0,0,1-.26.6A1,1,0,0,1,20.06,8.21Z" transform="translate(0 0)"/><path class="cls-4" d="M29.1,16.57h-22a.84.84,0,1,1,0-1.68h22a.84.84,0,1,1,0,1.68Z" transform="translate(0 0)"/><path class="cls-5" d="M29.1,21.05h-22a.84.84,0,1,1,0-1.68h22a.84.84,0,1,1,0,1.68Z" transform="translate(0 0)"/><path class="cls-6" d="M29.1,25.52h-22a.84.84,0,1,1,0-1.67h22a.84.84,0,1,1,0,1.67Z" transform="translate(0 0)"/><path class="cls-7" d="M29.1,30H17.36a.84.84,0,1,1,0-1.68H29.1a.84.84,0,1,1,0,1.68Z" transform="translate(0 0)"/><path class="cls-8" d="M12.32,30h0a.84.84,0,1,1,0-1.68h0a.84.84,0,1,1,0,1.68Z" transform="translate(0 0)"/></svg>